<svg xmlns="http://www.w3.org/2000/svg" viewBox="0 0 1000 620"><defs><linearGradient id="m" x2="0" y2="1"><stop stop-color="#4a897e"/><stop offset="1" stop-color="#e0e8d6"/></linearGradient><filter id="ink"><feTurbulence type="fractalNoise" baseFrequency=".025" numOctaves="3" seed="8" result="n"/><feDisplacementMap in="SourceGraphic" in2="n" scale="13"/></filter><filter id="soft"><feGaussianBlur stdDeviation="10"/></filter></defs><g filter="url(#ink)"><circle cx="780" cy="105" r="51" fill="#d68157" opacity=".68"/><path d="M130 540L400 156 449 244 492 123 577 340 650 238 810 504Z" fill="#98b8a5" opacity=".38"/><path d="M340 564L524 266 551 298 605 206 679 370 727 302 922 590Z" fill="url(#m)" opacity=".75"/><path d="M625 565L793 178 855 313 883 227 1000 462 1000 620Z" fill="#28685f" opacity=".73"/><path d="M756 386L793 178 818 302 847 350M839 420L883 227 899 331" fill="none" stroke="#224c45" stroke-width="7" opacity=".33"/><path d="M285 569Q470 424 676 529T1050 536L1040 620H180Z" fill="#b8c8a6"/><path d="M316 583Q477 535 651 566T946 579" fill="none" stroke="#568f8b" stroke-width="5" opacity=".6"/></g><g fill="#f6f2e5" opacity=".8" filter="url(#soft)"><ellipse cx="740" cy="433" rx="260" ry="28"/><ellipse cx="584" cy="504" rx="260" ry="23"/></g><g stroke="#354a3b" fill="none" stroke-linecap="round"><path d="M947 599Q870 514 950 408M918 529L989 465M919 488L875 447" stroke-width="8"/><path d="M895 467L853 461M925 458L946 420M949 490L980 481" stroke-width="22"/></g><g transform="translate(505 333) rotate(-7)"><ellipse cx="0" cy="217" rx="78" ry="12" fill="#284c43" opacity=".16"/><path d="M-43 122Q-83 172-69 207L-15 198 29 215 69 195Q55 143 34 121" fill="#75a89b" stroke="#315b52" stroke-width="4"/><path d="M-30 127L0 171 27 122M0 171L-10 208" fill="none" stroke="#f9ecce" stroke-width="15"/><ellipse cx="-5" cy="69" rx="65" ry="62" fill="#283c38"/><circle cx="-9" cy="7" r="23" fill="#283c38"/><path d="M-31 2Q-5-9 15 2" stroke="#cd8c5d" stroke-width="10"/><ellipse cx="-2" cy="84" rx="57" ry="49" fill="#f5d6b5"/><path d="M-56 60Q-33 11 18 35L49 63Q12 61-1 38-15 58-56 60" fill="#283c38"/><ellipse cx="-22" cy="83" rx="5" ry="8" fill="#273b36"/><ellipse cx="24" cy="83" rx="5" ry="8" fill="#273b36"/><path d="M-5 101Q4 111 12 100" fill="none" stroke="#a76150" stroke-width="3"/><ellipse cx="-37" cy="100" rx="11" ry="6" fill="#e8a391"/><ellipse cx="36" cy="100" rx="11" ry="6" fill="#e8a391"/><g transform="rotate(12 0 170)"><path d="M-44 151L0 161 45 146 47 192 0 204-46 193Z" fill="#f6edcf" stroke="#8d7651" stroke-width="3"/><path d="M0 163V202M-34 166L-10 173M-34 179L-10 185M12 170L34 162M12 183L34 175" stroke="#a58c64" stroke-width="2"/></g><ellipse cx="-48" cy="177" rx="12" ry="15" fill="#f5d6b5"/><ellipse cx="47" cy="172" rx="12" ry="15" fill="#f5d6b5"/></g><g fill="#3b7066" opacity=".3"><circle cx="390" cy="233" r="6"/><circle cx="402" cy="216" r="3"/><circle cx="932" cy="145" r="9"/><circle cx="952" cy="164" r="4"/><circle cx="724" cy="579" r="7"/></g><path d="M617 132q12-12 23 0 11-12 23-1M676 110q9-9 17 0 8-9 17 0" fill="none" stroke="#4e6353" stroke-width="3"/></svg>